<svg xmlns="http://www.w3.org/2000/svg" viewBox="0 0 64 64"><g id="_25-Education_Website" data-name="25-Education Website"><path d="M59,2H5A3.00328,3.00328,0,0,0,2,5V59a3.00328,3.00328,0,0,0,3,3H59a3.00328,3.00328,0,0,0,3-3V5A3.00328,3.00328,0,0,0,59,2ZM5,4H59a1.001,1.001,0,0,1,1,1v9H4V5A1.001,1.001,0,0,1,5,4ZM59,60H5a1.001,1.001,0,0,1-1-1V16H60V59A1.001,1.001,0,0,1,59,60ZM9,12A3,3,0,1,0,6,9,3.00328,3.00328,0,0,0,9,12ZM9,8A1,1,0,1,1,8,9,1.001,1.001,0,0,1,9,8Zm8,4a3,3,0,1,0-3-3A3.00328,3.00328,0,0,0,17,12Zm0-4a1,1,0,1,1-1,1A1.001,1.001,0,0,1,17,8Zm8,4a3,3,0,1,0-3-3A3.00328,3.00328,0,0,0,25,12Zm0-4a1,1,0,1,1-1,1A1.001,1.001,0,0,1,25,8Zm12,4H57a.99974.99974,0,0,0,1-1V7a.99974.99974,0,0,0-1-1H37a.99974.99974,0,0,0-1,1v4A.99974.99974,0,0,0,37,12Zm1-4H56v2H38ZM57,54a.99974.99974,0,0,1-1,1H8a1,1,0,0,1,0-2H56A.99974.99974,0,0,1,57,54ZM7,49a.99974.99974,0,0,1,1-1H47a1,1,0,0,1,0,2H8A.99974.99974,0,0,1,7,49Zm50,0a.99974.99974,0,0,1-1,1H51a1,1,0,0,1,0-2h5A.99974.99974,0,0,1,57,49ZM14.667,27.94336,19,29.47266v7.73828a.99928.99928,0,0,0,.293.707c.17529.17578,4.38867,4.292,12.707,4.292a20.97849,20.97849,0,0,0,7-1.15179V43a1,1,0,0,0,2,0V40.22485a13.9361,13.9361,0,0,0,3.7251-2.53637A.99911.99911,0,0,0,45,37V29.47266l4.333-1.5293a1.00062,1.00062,0,0,0,0-1.88672l-17-6a.99916.99916,0,0,0-.666,0l-17,6a1.00062,1.00062,0,0,0,0,1.88672ZM32,40.21a17.41318,17.41318,0,0,1-11-3.45117V30.17853l10.667,3.76483a1.00727,1.00727,0,0,0,.666,0L39,31.59033v7.32172A18.69541,18.69541,0,0,1,32,40.21Zm11-3.64648a12.79978,12.79978,0,0,1-2,1.38745V30.8844l2-.70587ZM32,22.06055,45.99561,27,40.4657,28.95166a.97172.97172,0,0,0-.13269-.07178l-8-2.82324a1.00041,1.00041,0,0,0-.666,1.88672l5.828,2.05676L32,31.93945,18.00439,27Z" id="id_101" style="fill: rgb(255, 255, 255);"></path></g></svg>