<svg xmlns="http://www.w3.org/2000/svg" xml:space="preserve" width="1.70666in" height="1.70666in" version="1.1" style="shape-rendering:geometricPrecision; text-rendering:geometricPrecision; image-rendering:optimizeQuality; fill-rule:evenodd; clip-rule:evenodd" viewBox="0 0 1707 1707" xmlns:xlink="http://www.w3.org/1999/xlink">
 <defs>
  <style type="text/css">
   
    .fil0 {fill:#000002}
   
  </style>
 </defs>
 <g id="Layer_x0020_1">
  <metadata id="CorelCorpID_0Corel-Layer"></metadata>
  <g id="_292271376">
   <g>
    <g>
     <path class="fil0" d="M1485 1706l-1263 0c-65,0 -117,-52 -117,-116l0 -1473c0,-64 52,-117 117,-117l1263 0c64,0 117,53 117,117l0 1473c0,64 -53,116 -117,116zm-1263 -1660c-40,0 -72,32 -72,71l0 1473c0,39 32,71 72,71l1263 0c39,0 71,-32 71,-71l0 -1473c0,-39 -32,-71 -71,-71l-1263 0 0 0z" id="id_101" style="fill: rgb(255, 255, 255);"></path>
    </g>
    <g>
     <path class="fil0" d="M1362 272l-344 0c-13,0 -23,-10 -23,-22 0,-13 10,-23 23,-23l344 0c12,0 23,10 23,23 0,12 -11,22 -23,22z" id="id_102" style="fill: rgb(255, 255, 255);"></path>
    </g>
    <g>
     <path class="fil0" d="M1362 432l-344 0c-13,0 -23,-10 -23,-22 0,-13 10,-23 23,-23l344 0c12,0 23,10 23,23 0,12 -11,22 -23,22z" id="id_103" style="fill: rgb(255, 255, 255);"></path>
    </g>
    <g>
     <path class="fil0" d="M1362 752l-344 0c-13,0 -23,-10 -23,-23 0,-12 10,-23 23,-23l344 0c12,0 23,11 23,23 0,13 -11,23 -23,23z" id="id_104" style="fill: rgb(255, 255, 255);"></path>
    </g>
    <g>
     <path class="fil0" d="M1395 984l-1084 0c-12,0 -22,-10 -22,-23 0,-12 10,-23 22,-23l1084 0c13,0 23,11 23,23 0,13 -10,23 -23,23z" id="id_105" style="fill: rgb(255, 255, 255);"></path>
    </g>
    <g>
     <path class="fil0" d="M1395 1136l-1084 0c-12,0 -22,-10 -22,-23 0,-12 10,-22 22,-22l1084 0c13,0 23,10 23,22 0,13 -10,23 -23,23z" id="id_106" style="fill: rgb(255, 255, 255);"></path>
    </g>
    <g>
     <path class="fil0" d="M1395 1288l-1084 0c-12,0 -22,-10 -22,-22 0,-13 10,-23 22,-23l1084 0c13,0 23,10 23,23 0,12 -10,22 -23,22z" id="id_107" style="fill: rgb(255, 255, 255);"></path>
    </g>
    <g>
     <path class="fil0" d="M1395 1593l-288 0c-13,0 -23,-11 -23,-23 0,-13 10,-23 23,-23l288 0c13,0 23,10 23,23 0,12 -10,23 -23,23z" id="id_108" style="fill: rgb(255, 255, 255);"></path>
    </g>
    <g>
     <path class="fil0" d="M853 1440l-542 0c-12,0 -22,-10 -22,-22 0,-13 10,-23 22,-23l542 0c13,0 23,10 23,23 0,12 -10,22 -23,22z" id="id_109" style="fill: rgb(255, 255, 255);"></path>
    </g>
    <g>
     <g>
      <path class="fil0" d="M1388 592l-343 0c-13,0 -23,-10 -23,-23 0,-12 10,-22 23,-22l343 0c13,0 23,10 23,22 0,13 -10,23 -23,23z" id="id_110" style="fill: rgb(255, 255, 255);"></path>
     </g>
     <g>
      <g>
       <path class="fil0" d="M920 864l-602 0c-12,0 -23,-10 -23,-23l0 -132c0,-86 70,-156 156,-156l55 0c5,0 10,2 15,5l97 78 100 -78c4,-3 9,-5 14,-5l55 0c86,0 155,70 155,156l0 132c0,13 -10,23 -22,23zm-579 -45l556 0 0 -110c0,-61 -49,-110 -110,-110l-48 0 -108 84c-8,7 -19,7 -28,0l-105 -84 -47 0c-61,0 -110,49 -110,110l0 110 0 0z" id="id_111" style="fill: rgb(255, 255, 255);"></path>
      </g>
      <g>
       <g>
        <path class="fil0" d="M617 555c-82,0 -166,-60 -167,-192 0,-4 -2,-108 98,-164 9,-5 18,-8 26,-8 24,0 39,18 52,33 15,18 30,35 57,35 10,0 20,-2 32,-5 4,-2 9,-3 13,-3 45,0 59,68 64,109 7,67 -19,111 -42,136 -33,37 -83,59 -133,59zm-43 -318c0,0 -1,0 -4,1 -75,43 -75,121 -75,124 1,109 64,147 122,147 38,0 75,-16 99,-43 24,-27 35,-62 30,-102 -3,-35 -13,-61 -19,-67 -15,5 -30,8 -44,8 -48,0 -74,-31 -91,-51 -6,-6 -14,-17 -18,-17z" id="id_112" style="fill: rgb(255, 255, 255);"></path>
       </g>
       <g>
        <path class="fil0" d="M769 385c-3,0 -5,0 -8,-1 -11,-4 -18,-17 -13,-29 22,-65 14,-128 -23,-164 -33,-33 -85,-40 -146,-18 -5,2 -11,2 -16,-1 -8,-3 -29,-12 -53,17 -33,39 -42,114 -19,151 7,11 4,25 -7,31 -11,7 -25,4 -31,-7 -38,-60 -19,-156 22,-204 27,-32 61,-44 97,-33 73,-24 141,-12 185,32 49,48 62,129 33,211 -3,9 -12,15 -21,15z" id="id_113" style="fill: rgb(255, 255, 255);"></path>
       </g>
      </g>
      <g>
       <path class="fil0" d="M506 599c-2,0 -4,0 -6,-1 -12,-3 -19,-16 -16,-28l21 -76c3,-12 16,-19 28,-16 12,3 19,15 16,28l-21 76c-2,10 -12,17 -22,17z" id="id_114" style="fill: rgb(255, 255, 255);"></path>
      </g>
      <g>
       <path class="fil0" d="M732 599c-10,0 -20,-7 -22,-17l-21 -75c-3,-13 4,-25 17,-28 12,-3 24,4 27,16l21 75c3,12 -4,25 -16,28 -2,1 -4,1 -6,1z" id="id_115" style="fill: rgb(255, 255, 255);"></path>
      </g>
      <g>
       <g>
        <path class="fil0" d="M430 864c-12,0 -23,-10 -23,-23l0 -90c0,-13 11,-23 23,-23 13,0 23,10 23,23l0 90c0,13 -10,23 -23,23z" id="id_116" style="fill: rgb(255, 255, 255);"></path>
       </g>
       <g>
        <path class="fil0" d="M808 864c-13,0 -23,-10 -23,-23l0 -90c0,-13 10,-23 23,-23 12,0 22,10 22,23l0 90c0,13 -10,23 -22,23z" id="id_117" style="fill: rgb(255, 255, 255);"></path>
       </g>
      </g>
     </g>
    </g>
   </g>
  </g>
 </g>
</svg>